<svg xmlns="http://www.w3.org/2000/svg" xmlns:xlink="http://www.w3.org/1999/xlink" width="150" zoomAndPan="magnify" viewBox="0 0 112.5 37.5" height="50" preserveAspectRatio="xMidYMid meet" version="1.0"><defs><g><g id="id1"/></g><clipPath id="id2"><path d="M 0.492188 0 L 111.511719 0 L 111.511719 37.007812 L 0.492188 37.007812 Z M 0.492188 0 " clip-rule="nonzero"/></clipPath><clipPath id="id3"><path d="M 4.210938 11.152344 L 19.078125 11.152344 L 19.078125 26.019531 L 4.210938 26.019531 Z M 4.210938 11.152344 " clip-rule="nonzero"/></clipPath></defs><g clip-path="url(#id2)"><path fill="rgb(100%, 100%, 100%)" d="M 0.492188 0 L 112.007812 0 L 112.007812 124.894531 L 0.492188 124.894531 Z M 0.492188 0 " fill-opacity="1" fill-rule="nonzero"/><path fill="rgb(100%, 100%, 100%)" d="M 0.492188 0 L 112.007812 0 L 112.007812 37.171875 L 0.492188 37.171875 Z M 0.492188 0 " fill-opacity="1" fill-rule="nonzero"/><path fill="rgb(100%, 100%, 100%)" d="M 0.492188 0 L 112.007812 0 L 112.007812 37.171875 L 0.492188 37.171875 Z M 0.492188 0 " fill-opacity="1" fill-rule="nonzero"/><path fill="rgb(100%, 100%, 100%)" d="M 0.492188 0 L 112.007812 0 L 112.007812 37.171875 L 0.492188 37.171875 Z M 0.492188 0 " fill-opacity="1" fill-rule="nonzero"/><path fill="rgb(49.01886%, 59.999084%, 5.488586%)" d="M 110.773438 37.171875 L 1.726562 37.171875 C 1.046875 37.171875 0.492188 36.617188 0.492188 35.9375 L 0.492188 1.234375 C 0.492188 0.554688 1.046875 0 1.726562 0 L 110.773438 0 C 111.453125 0 112.007812 0.554688 112.007812 1.234375 L 112.007812 35.9375 C 112.007812 36.617188 111.453125 37.171875 110.773438 37.171875 " fill-opacity="1" fill-rule="nonzero"/></g><g fill="rgb(0%, 0%, 0%)" fill-opacity="1"><g transform="translate(26.405708, 24.904605)"><g><path d="M 0.0625 0 L 0.0625 -1.25 L 1.640625 -1.25 L 6.234375 -13.109375 L 8.296875 -13.109375 L 12.953125 -1.25 L 14.421875 -1.25 L 14.421875 0 L 8.78125 0 L 8.78125 -1.25 L 10.71875 -1.25 L 9.515625 -4.390625 L 4.484375 -4.390625 L 3.34375 -1.25 L 5.53125 -1.25 L 5.53125 0 Z M 4.890625 -5.5 L 9.078125 -5.5 L 6.921875 -11.40625 Z M 4.890625 -5.5 "/></g></g><g transform="translate(40.884994, 24.904605)"><g><path d="M 4.53125 0.234375 C 3.769531 0.234375 3.097656 0.03125 2.515625 -0.375 C 1.929688 -0.78125 1.484375 -1.351562 1.171875 -2.09375 C 0.859375 -2.84375 0.703125 -3.703125 0.703125 -4.671875 C 0.703125 -5.660156 0.863281 -6.523438 1.1875 -7.265625 C 1.507812 -8.003906 1.96875 -8.578125 2.5625 -8.984375 C 3.15625 -9.390625 3.851562 -9.59375 4.65625 -9.59375 C 5.144531 -9.59375 5.617188 -9.46875 6.078125 -9.21875 C 6.546875 -8.976562 6.925781 -8.640625 7.21875 -8.203125 L 7.21875 -12.046875 L 5.171875 -12.046875 L 5.171875 -13.109375 L 9.09375 -13.109375 L 9.09375 -0.96875 L 10.671875 -0.96875 L 10.671875 0 L 7.578125 0 L 7.234375 -1.484375 C 6.941406 -0.941406 6.546875 -0.519531 6.046875 -0.21875 C 5.554688 0.0820312 5.050781 0.234375 4.53125 0.234375 Z M 4.90625 -0.875 C 5.375 -0.875 5.789062 -1.039062 6.15625 -1.375 C 6.53125 -1.707031 6.820312 -2.171875 7.03125 -2.765625 C 7.25 -3.367188 7.359375 -4.039062 7.359375 -4.78125 C 7.359375 -5.75 7.171875 -6.609375 6.796875 -7.359375 C 6.609375 -7.753906 6.351562 -8.0625 6.03125 -8.28125 C 5.71875 -8.5 5.363281 -8.609375 4.96875 -8.609375 C 4.582031 -8.609375 4.234375 -8.492188 3.921875 -8.265625 C 3.617188 -8.046875 3.378906 -7.738281 3.203125 -7.34375 C 2.859375 -6.5625 2.6875 -5.660156 2.6875 -4.640625 C 2.6875 -3.203125 3.015625 -2.132812 3.671875 -1.4375 C 4.015625 -1.0625 4.425781 -0.875 4.90625 -0.875 Z M 4.90625 -0.875 "/></g></g><g transform="translate(51.652983, 24.904605)"><g><path d="M 0.421875 -0.96875 L 2.125 -0.96875 L 2.125 -8.375 L 0.421875 -8.375 L 0.421875 -9.34375 L 3.734375 -9.5 L 3.953125 -7.59375 C 4.066406 -7.9375 4.234375 -8.242188 4.453125 -8.515625 C 4.671875 -8.785156 4.921875 -9 5.203125 -9.15625 C 5.734375 -9.445312 6.296875 -9.59375 6.890625 -9.59375 C 7.117188 -9.59375 7.3125 -9.582031 7.46875 -9.5625 C 7.625 -9.550781 7.800781 -9.507812 8 -9.4375 C 8.21875 -9.363281 8.40625 -9.265625 8.5625 -9.140625 C 8.726562 -9.015625 8.882812 -8.832031 9.03125 -8.59375 C 9.175781 -8.363281 9.300781 -8.082031 9.40625 -7.75 C 9.675781 -8.363281 10.050781 -8.820312 10.53125 -9.125 C 11.019531 -9.4375 11.570312 -9.59375 12.1875 -9.59375 C 12.382812 -9.59375 12.5625 -9.582031 12.71875 -9.5625 C 12.875 -9.550781 13.039062 -9.519531 13.21875 -9.46875 C 13.4375 -9.394531 13.625 -9.304688 13.78125 -9.203125 C 13.9375 -9.109375 14.097656 -8.976562 14.265625 -8.8125 C 14.441406 -8.632812 14.582031 -8.429688 14.6875 -8.203125 C 14.800781 -7.972656 14.898438 -7.691406 14.984375 -7.359375 C 15.046875 -7.015625 15.078125 -6.632812 15.078125 -6.21875 L 15.078125 -0.96875 L 16.6875 -0.96875 L 16.6875 0 L 11.796875 0 L 11.796875 -0.96875 L 13.203125 -0.96875 L 13.203125 -6.1875 C 13.203125 -6.925781 13.054688 -7.476562 12.765625 -7.84375 C 12.484375 -8.21875 12.078125 -8.40625 11.546875 -8.40625 C 11.140625 -8.40625 10.785156 -8.316406 10.484375 -8.140625 C 10.191406 -7.972656 9.96875 -7.734375 9.8125 -7.421875 C 9.65625 -7.117188 9.578125 -6.769531 9.578125 -6.375 L 9.578125 -0.96875 L 11.078125 -0.96875 L 11.078125 0 L 6.21875 0 L 6.21875 -0.96875 L 7.703125 -0.96875 L 7.703125 -6.1875 C 7.703125 -6.925781 7.554688 -7.476562 7.265625 -7.84375 C 6.984375 -8.21875 6.578125 -8.40625 6.046875 -8.40625 C 5.722656 -8.40625 5.429688 -8.34375 5.171875 -8.21875 C 4.921875 -8.09375 4.722656 -7.925781 4.578125 -7.71875 C 4.429688 -7.519531 4.3125 -7.273438 4.21875 -6.984375 C 4.132812 -6.691406 4.078125 -6.390625 4.046875 -6.078125 C 4.015625 -5.742188 4 -5.421875 4 -5.109375 L 4 -0.96875 L 5.5 -0.96875 L 5.5 0 L 0.421875 0 Z M 0.421875 -0.96875 "/></g></g><g transform="translate(68.458363, 24.904605)"><g><path d="M 2.921875 -11 C 2.691406 -11 2.476562 -11.054688 2.28125 -11.171875 C 2.082031 -11.285156 1.925781 -11.441406 1.8125 -11.640625 C 1.695312 -11.835938 1.640625 -12.050781 1.640625 -12.28125 C 1.640625 -12.519531 1.695312 -12.738281 1.8125 -12.9375 C 1.925781 -13.132812 2.082031 -13.289062 2.28125 -13.40625 C 2.476562 -13.519531 2.691406 -13.578125 2.921875 -13.578125 C 3.148438 -13.578125 3.363281 -13.515625 3.5625 -13.390625 C 3.769531 -13.273438 3.929688 -13.117188 4.046875 -12.921875 C 4.160156 -12.722656 4.21875 -12.507812 4.21875 -12.28125 C 4.21875 -12.050781 4.160156 -11.835938 4.046875 -11.640625 C 3.929688 -11.441406 3.769531 -11.285156 3.5625 -11.171875 C 3.363281 -11.054688 3.148438 -11 2.921875 -11 Z M 0.484375 0 L 0.484375 -0.96875 L 2.15625 -0.96875 L 2.15625 -8.375 L 0.46875 -8.375 L 0.46875 -9.34375 L 4.03125 -9.34375 L 4.03125 -0.96875 L 5.734375 -0.96875 L 5.734375 0 Z M 0.484375 0 "/></g></g><g transform="translate(74.251819, 24.904605)"><g><path d="M 0.421875 -0.96875 L 2.125 -0.96875 L 2.125 -8.375 L 0.421875 -8.375 L 0.421875 -9.34375 L 3.734375 -9.5 L 3.953125 -7.59375 C 4.128906 -8.007812 4.378906 -8.367188 4.703125 -8.671875 C 5.035156 -8.972656 5.40625 -9.203125 5.8125 -9.359375 C 6.226562 -9.515625 6.640625 -9.59375 7.046875 -9.59375 C 7.242188 -9.59375 7.421875 -9.582031 7.578125 -9.5625 C 7.734375 -9.550781 7.898438 -9.519531 8.078125 -9.46875 C 8.296875 -9.394531 8.484375 -9.304688 8.640625 -9.203125 C 8.796875 -9.109375 8.957031 -8.976562 9.125 -8.8125 C 9.300781 -8.632812 9.441406 -8.429688 9.546875 -8.203125 C 9.660156 -7.972656 9.757812 -7.691406 9.84375 -7.359375 C 9.90625 -7.015625 9.9375 -6.632812 9.9375 -6.21875 L 9.9375 -0.96875 L 11.734375 -0.96875 L 11.734375 0 L 6.46875 0 L 6.46875 -0.96875 L 8.0625 -0.96875 L 8.0625 -6.1875 C 8.0625 -6.925781 7.914062 -7.476562 7.625 -7.84375 C 7.34375 -8.21875 6.9375 -8.40625 6.40625 -8.40625 C 6.082031 -8.40625 5.78125 -8.34375 5.5 -8.21875 C 5.226562 -8.101562 5 -7.9375 4.8125 -7.71875 C 4.632812 -7.507812 4.484375 -7.257812 4.359375 -6.96875 C 4.234375 -6.6875 4.144531 -6.390625 4.09375 -6.078125 C 4.03125 -5.785156 4 -5.460938 4 -5.109375 L 4 -0.96875 L 5.578125 -0.96875 L 5.578125 0 L 0.421875 0 Z M 0.421875 -0.96875 "/></g></g></g><g clip-path="url(#id3)"><path fill="rgb(96.469116%, 98.81897%, 92.549133%)" d="M 11.660156 11.167969 C 8.519531 11.167969 5.832031 13.125 4.75 15.886719 C 4.714844 15.972656 4.710938 16.058594 4.746094 16.140625 C 4.78125 16.226562 4.84375 16.285156 4.929688 16.320312 C 5.015625 16.351562 5.097656 16.351562 5.183594 16.3125 C 5.265625 16.273438 5.320312 16.210938 5.351562 16.121094 C 6.335938 13.601562 8.785156 11.8125 11.660156 11.8125 C 15.40625 11.8125 18.433594 14.839844 18.433594 18.585938 C 18.433594 22.328125 15.40625 25.359375 11.660156 25.359375 C 8.785156 25.359375 6.335938 23.570312 5.351562 21.046875 C 5.320312 20.960938 5.265625 20.898438 5.183594 20.859375 C 5.097656 20.820312 5.015625 20.816406 4.929688 20.851562 C 4.84375 20.886719 4.78125 20.945312 4.746094 21.027344 C 4.710938 21.113281 4.714844 21.199219 4.75 21.28125 C 5.832031 24.046875 8.519531 26.003906 11.660156 26.003906 C 15.753906 26.003906 19.078125 22.679688 19.078125 18.585938 C 19.078125 14.492188 15.753906 11.167969 11.660156 11.167969 Z M 11.980469 15.679688 C 11.835938 15.679688 11.734375 15.746094 11.679688 15.878906 C 11.628906 16.015625 11.652344 16.132812 11.753906 16.234375 L 13.785156 18.261719 L 4.566406 18.261719 C 4.476562 18.261719 4.398438 18.292969 4.335938 18.355469 C 4.269531 18.417969 4.238281 18.496094 4.238281 18.585938 C 4.238281 18.675781 4.269531 18.753906 4.335938 18.816406 C 4.398438 18.878906 4.476562 18.910156 4.566406 18.90625 L 13.785156 18.90625 L 11.753906 20.9375 C 11.691406 21 11.65625 21.078125 11.65625 21.167969 C 11.65625 21.257812 11.6875 21.335938 11.75 21.398438 C 11.816406 21.460938 11.890625 21.492188 11.980469 21.492188 C 12.074219 21.492188 12.148438 21.457031 12.210938 21.394531 L 14.792969 18.8125 C 14.855469 18.75 14.886719 18.675781 14.886719 18.585938 C 14.886719 18.496094 14.855469 18.421875 14.792969 18.359375 L 12.210938 15.777344 C 12.148438 15.710938 12.070312 15.679688 11.980469 15.679688 Z M 11.980469 15.679688 " fill-opacity="1" fill-rule="nonzero"/></g></svg>