<svg xmlns="http://www.w3.org/2000/svg" xmlns:xlink="http://www.w3.org/1999/xlink" width="150" zoomAndPan="magnify" viewBox="0 0 112.5 37.5" height="50" preserveAspectRatio="xMidYMid meet" version="1.0"><defs><g><g id="id1"/></g><clipPath id="id2"><path d="M 0.492188 0 L 111.511719 0 L 111.511719 37.007812 L 0.492188 37.007812 Z M 0.492188 0 " clip-rule="nonzero"/></clipPath><clipPath id="id3"><path d="M 4.210938 11.152344 L 19.078125 11.152344 L 19.078125 26.019531 L 4.210938 26.019531 Z M 4.210938 11.152344 " clip-rule="nonzero"/></clipPath></defs><g clip-path="url(#id2)"><path fill="rgb(100%, 100%, 100%)" d="M 0.492188 0 L 112.007812 0 L 112.007812 37.171875 L 0.492188 37.171875 Z M 0.492188 0 " fill-opacity="1" fill-rule="nonzero"/><path fill="rgb(100%, 100%, 100%)" d="M 0.492188 0 L 112.007812 0 L 112.007812 37.171875 L 0.492188 37.171875 Z M 0.492188 0 " fill-opacity="1" fill-rule="nonzero"/><path fill="rgb(100%, 100%, 100%)" d="M 0.492188 0 L 112.007812 0 L 112.007812 37.171875 L 0.492188 37.171875 Z M 0.492188 0 " fill-opacity="1" fill-rule="nonzero"/><path fill="rgb(49.01886%, 59.999084%, 5.488586%)" d="M 110.773438 37.171875 L 1.726562 37.171875 C 1.046875 37.171875 0.492188 36.617188 0.492188 35.9375 L 0.492188 1.234375 C 0.492188 0.554688 1.046875 0 1.726562 0 L 110.773438 0 C 111.453125 0 112.007812 0.554688 112.007812 1.234375 L 112.007812 35.9375 C 112.007812 36.617188 111.453125 37.171875 110.773438 37.171875 " fill-opacity="1" fill-rule="nonzero"/></g><g fill="rgb(0%, 0%, 0%)" fill-opacity="1"><g transform="translate(39.125176, 24.904605)"><g><path d="M 0.28125 0 L 0.28125 -1.25 L 2.40625 -1.25 L 2.40625 -11.859375 L 0.28125 -11.859375 L 0.28125 -13.109375 L 11.96875 -13.109375 L 11.96875 -8.328125 L 10.390625 -8.328125 L 10.390625 -11.859375 L 4.46875 -11.859375 L 4.46875 -7.359375 L 7.59375 -7.359375 L 7.59375 -9.1875 L 8.796875 -9.1875 L 8.796875 -4.109375 L 7.59375 -4.109375 L 7.59375 -6.3125 L 4.46875 -6.3125 L 4.46875 -1.25 L 6.71875 -1.25 L 6.71875 0 Z M 0.28125 0 "/></g></g><g transform="translate(51.400335, 24.904605)"><g><path d="M 3.6875 -10.28125 C 3.476562 -10.28125 3.28125 -10.332031 3.09375 -10.4375 C 2.914062 -10.550781 2.769531 -10.695312 2.65625 -10.875 C 2.550781 -11.0625 2.5 -11.257812 2.5 -11.46875 C 2.5 -11.6875 2.550781 -11.890625 2.65625 -12.078125 C 2.769531 -12.265625 2.914062 -12.410156 3.09375 -12.515625 C 3.28125 -12.628906 3.476562 -12.6875 3.6875 -12.6875 C 3.90625 -12.6875 4.101562 -12.628906 4.28125 -12.515625 C 4.46875 -12.410156 4.613281 -12.265625 4.71875 -12.078125 C 4.832031 -11.890625 4.890625 -11.6875 4.890625 -11.46875 C 4.890625 -11.257812 4.832031 -11.0625 4.71875 -10.875 C 4.613281 -10.695312 4.46875 -10.550781 4.28125 -10.4375 C 4.09375 -10.332031 3.894531 -10.28125 3.6875 -10.28125 Z M 7.828125 -10.28125 C 7.617188 -10.28125 7.421875 -10.332031 7.234375 -10.4375 C 7.046875 -10.550781 6.898438 -10.695312 6.796875 -10.875 C 6.691406 -11.0625 6.640625 -11.257812 6.640625 -11.46875 C 6.640625 -11.6875 6.691406 -11.890625 6.796875 -12.078125 C 6.898438 -12.265625 7.046875 -12.410156 7.234375 -12.515625 C 7.421875 -12.628906 7.617188 -12.6875 7.828125 -12.6875 C 8.046875 -12.6875 8.242188 -12.628906 8.421875 -12.515625 C 8.609375 -12.410156 8.757812 -12.265625 8.875 -12.078125 C 8.988281 -11.890625 9.046875 -11.6875 9.046875 -11.46875 C 9.046875 -11.257812 8.988281 -11.0625 8.875 -10.875 C 8.757812 -10.695312 8.609375 -10.550781 8.421875 -10.4375 C 8.242188 -10.332031 8.046875 -10.28125 7.828125 -10.28125 Z M 7.671875 -1.71875 C 6.941406 -0.414062 5.894531 0.234375 4.53125 0.234375 C 4.320312 0.234375 4.125 0.21875 3.9375 0.1875 C 3.75 0.15625 3.539062 0.101562 3.3125 0.03125 C 2.882812 -0.101562 2.492188 -0.421875 2.140625 -0.921875 C 1.960938 -1.160156 1.828125 -1.46875 1.734375 -1.84375 C 1.648438 -2.226562 1.609375 -2.660156 1.609375 -3.140625 L 1.609375 -8.375 L -0.03125 -8.375 L -0.03125 -9.34375 L 3.46875 -9.34375 L 3.46875 -3.15625 C 3.46875 -2.382812 3.585938 -1.828125 3.828125 -1.484375 C 4.078125 -1.140625 4.46875 -0.96875 5 -0.96875 C 5.363281 -0.96875 5.75 -1.078125 6.15625 -1.296875 C 6.570312 -1.523438 6.921875 -1.816406 7.203125 -2.171875 C 7.472656 -2.535156 7.609375 -2.898438 7.609375 -3.265625 L 7.609375 -8.375 L 6.03125 -8.375 L 6.03125 -9.34375 L 9.5 -9.34375 L 9.5 -0.984375 L 11.1875 -0.796875 L 11.1875 0 L 7.671875 0.25 Z M 7.671875 -1.71875 "/></g></g><g transform="translate(62.603922, 24.904605)"><g><path d="M 4.53125 0.234375 C 3.769531 0.234375 3.097656 0.03125 2.515625 -0.375 C 1.929688 -0.78125 1.484375 -1.351562 1.171875 -2.09375 C 0.859375 -2.84375 0.703125 -3.703125 0.703125 -4.671875 C 0.703125 -5.660156 0.863281 -6.523438 1.1875 -7.265625 C 1.507812 -8.003906 1.96875 -8.578125 2.5625 -8.984375 C 3.15625 -9.390625 3.851562 -9.59375 4.65625 -9.59375 C 5.144531 -9.59375 5.617188 -9.46875 6.078125 -9.21875 C 6.546875 -8.976562 6.925781 -8.640625 7.21875 -8.203125 L 7.21875 -12.046875 L 5.171875 -12.046875 L 5.171875 -13.109375 L 9.09375 -13.109375 L 9.09375 -0.96875 L 10.671875 -0.96875 L 10.671875 0 L 7.578125 0 L 7.234375 -1.484375 C 6.941406 -0.941406 6.546875 -0.519531 6.046875 -0.21875 C 5.554688 0.0820312 5.050781 0.234375 4.53125 0.234375 Z M 4.90625 -0.875 C 5.375 -0.875 5.789062 -1.039062 6.15625 -1.375 C 6.53125 -1.707031 6.820312 -2.171875 7.03125 -2.765625 C 7.25 -3.367188 7.359375 -4.039062 7.359375 -4.78125 C 7.359375 -5.75 7.171875 -6.609375 6.796875 -7.359375 C 6.609375 -7.753906 6.351562 -8.0625 6.03125 -8.28125 C 5.71875 -8.5 5.363281 -8.609375 4.96875 -8.609375 C 4.582031 -8.609375 4.234375 -8.492188 3.921875 -8.265625 C 3.617188 -8.046875 3.378906 -7.738281 3.203125 -7.34375 C 2.859375 -6.5625 2.6875 -5.660156 2.6875 -4.640625 C 2.6875 -3.203125 3.015625 -2.132812 3.671875 -1.4375 C 4.015625 -1.0625 4.425781 -0.875 4.90625 -0.875 Z M 4.90625 -0.875 "/></g></g></g><g clip-path="url(#id3)"><path fill="rgb(96.469116%, 98.81897%, 92.549133%)" d="M 11.660156 11.167969 C 8.519531 11.167969 5.832031 13.125 4.75 15.886719 C 4.714844 15.972656 4.710938 16.058594 4.746094 16.140625 C 4.78125 16.226562 4.84375 16.285156 4.929688 16.320312 C 5.015625 16.351562 5.097656 16.351562 5.183594 16.3125 C 5.265625 16.273438 5.320312 16.210938 5.351562 16.121094 C 6.335938 13.601562 8.785156 11.8125 11.660156 11.8125 C 15.40625 11.8125 18.433594 14.839844 18.433594 18.585938 C 18.433594 22.328125 15.40625 25.359375 11.660156 25.359375 C 8.785156 25.359375 6.335938 23.570312 5.351562 21.046875 C 5.320312 20.960938 5.265625 20.898438 5.183594 20.859375 C 5.097656 20.820312 5.015625 20.816406 4.929688 20.851562 C 4.84375 20.886719 4.78125 20.945312 4.746094 21.027344 C 4.710938 21.113281 4.714844 21.199219 4.75 21.28125 C 5.832031 24.046875 8.519531 26.003906 11.660156 26.003906 C 15.753906 26.003906 19.078125 22.679688 19.078125 18.585938 C 19.078125 14.492188 15.753906 11.167969 11.660156 11.167969 Z M 11.980469 15.679688 C 11.835938 15.679688 11.734375 15.746094 11.679688 15.878906 C 11.628906 16.015625 11.652344 16.132812 11.753906 16.234375 L 13.785156 18.261719 L 4.566406 18.261719 C 4.476562 18.261719 4.398438 18.292969 4.335938 18.355469 C 4.269531 18.417969 4.238281 18.496094 4.238281 18.585938 C 4.238281 18.675781 4.269531 18.753906 4.335938 18.816406 C 4.398438 18.878906 4.476562 18.910156 4.566406 18.90625 L 13.785156 18.90625 L 11.753906 20.9375 C 11.691406 21 11.65625 21.078125 11.65625 21.167969 C 11.65625 21.257812 11.6875 21.335938 11.75 21.398438 C 11.816406 21.460938 11.890625 21.492188 11.980469 21.492188 C 12.074219 21.492188 12.148438 21.457031 12.210938 21.394531 L 14.792969 18.8125 C 14.855469 18.75 14.886719 18.675781 14.886719 18.585938 C 14.886719 18.496094 14.855469 18.421875 14.792969 18.359375 L 12.210938 15.777344 C 12.148438 15.710938 12.070312 15.679688 11.980469 15.679688 Z M 11.980469 15.679688 " fill-opacity="1" fill-rule="nonzero"/></g></svg>