<svg xmlns="http://www.w3.org/2000/svg" xmlns:xlink="http://www.w3.org/1999/xlink" width="150" zoomAndPan="magnify" viewBox="0 0 112.5 37.5" height="50" preserveAspectRatio="xMidYMid meet" version="1.0"><defs><g><g id="id1"/></g><clipPath id="id2"><path d="M 0.492188 0 L 111.511719 0 L 111.511719 37.007812 L 0.492188 37.007812 Z M 0.492188 0 " clip-rule="nonzero"/></clipPath><clipPath id="id3"><path d="M 4.210938 11.152344 L 19.078125 11.152344 L 19.078125 26.019531 L 4.210938 26.019531 Z M 4.210938 11.152344 " clip-rule="nonzero"/></clipPath></defs><g clip-path="url(#id2)"><path fill="rgb(100%, 100%, 100%)" d="M 0.492188 0 L 112.007812 0 L 112.007812 37.171875 L 0.492188 37.171875 Z M 0.492188 0 " fill-opacity="1" fill-rule="nonzero"/><path fill="rgb(100%, 100%, 100%)" d="M 0.492188 0 L 112.007812 0 L 112.007812 37.171875 L 0.492188 37.171875 Z M 0.492188 0 " fill-opacity="1" fill-rule="nonzero"/><path fill="rgb(100%, 100%, 100%)" d="M 0.492188 0 L 112.007812 0 L 112.007812 37.171875 L 0.492188 37.171875 Z M 0.492188 0 " fill-opacity="1" fill-rule="nonzero"/><path fill="rgb(49.01886%, 59.999084%, 5.488586%)" d="M 110.773438 37.171875 L 1.726562 37.171875 C 1.046875 37.171875 0.492188 36.617188 0.492188 35.9375 L 0.492188 1.234375 C 0.492188 0.554688 1.046875 0 1.726562 0 L 110.773438 0 C 111.453125 0 112.007812 0.554688 112.007812 1.234375 L 112.007812 35.9375 C 112.007812 36.617188 111.453125 37.171875 110.773438 37.171875 " fill-opacity="1" fill-rule="nonzero"/></g><g fill="rgb(0%, 0%, 0%)" fill-opacity="1"><g transform="translate(22.183309, 22.872577)"><g><path d="M 2.875 0 L 2.875 -1.109375 L 4.671875 -1.109375 L 4.671875 -10.546875 L 1.71875 -10.546875 L 1.71875 -6.953125 L 0.265625 -6.953125 L 0.265625 -11.65625 L 10.84375 -11.65625 L 10.84375 -6.953125 L 9.40625 -6.953125 L 9.40625 -10.546875 L 6.5 -10.546875 L 6.5 -1.109375 L 8.359375 -1.109375 L 8.359375 0 Z M 2.875 0 "/></g></g></g><g fill="rgb(0%, 0%, 0%)" fill-opacity="1"><g transform="translate(33.293197, 22.872577)"><g><path d="M 4.609375 0.203125 C 3.992188 0.203125 3.425781 0.0859375 2.90625 -0.140625 C 2.382812 -0.378906 1.953125 -0.703125 1.609375 -1.109375 C 1.273438 -1.515625 1.019531 -1.96875 0.84375 -2.46875 C 0.664062 -2.976562 0.578125 -3.503906 0.578125 -4.046875 C 0.578125 -4.515625 0.628906 -4.96875 0.734375 -5.40625 C 0.847656 -5.851562 1.015625 -6.257812 1.234375 -6.625 C 1.703125 -7.4375 2.335938 -7.992188 3.140625 -8.296875 C 3.554688 -8.453125 4.015625 -8.53125 4.515625 -8.53125 C 5.046875 -8.53125 5.535156 -8.4375 5.984375 -8.25 C 6.441406 -8.0625 6.84375 -7.796875 7.1875 -7.453125 C 7.53125 -7.085938 7.800781 -6.628906 8 -6.078125 C 8.195312 -5.535156 8.300781 -4.929688 8.3125 -4.265625 L 2.34375 -4.265625 L 2.34375 -4.203125 C 2.34375 -3.304688 2.535156 -2.550781 2.921875 -1.9375 C 3.109375 -1.625 3.363281 -1.378906 3.6875 -1.203125 C 4.007812 -1.035156 4.375 -0.953125 4.78125 -0.953125 C 5.132812 -0.953125 5.476562 -1.023438 5.8125 -1.171875 C 6.15625 -1.328125 6.453125 -1.550781 6.703125 -1.84375 C 6.953125 -2.132812 7.132812 -2.476562 7.25 -2.875 L 8.15625 -2.59375 C 8.019531 -2.019531 7.789062 -1.519531 7.46875 -1.09375 C 7.144531 -0.675781 6.738281 -0.351562 6.25 -0.125 C 5.757812 0.09375 5.210938 0.203125 4.609375 0.203125 Z M 6.609375 -5.109375 C 6.597656 -5.597656 6.5 -6.03125 6.3125 -6.40625 C 6.132812 -6.789062 5.890625 -7.085938 5.578125 -7.296875 C 5.273438 -7.503906 4.9375 -7.609375 4.5625 -7.609375 C 4.1875 -7.609375 3.84375 -7.503906 3.53125 -7.296875 C 3.21875 -7.085938 2.960938 -6.789062 2.765625 -6.40625 C 2.566406 -6.03125 2.445312 -5.597656 2.40625 -5.109375 Z M 6.609375 -5.109375 "/></g></g></g><g fill="rgb(0%, 0%, 0%)" fill-opacity="1"><g transform="translate(42.196587, 22.872577)"><g><path d="M 8.75 0.15625 C 8.207031 0.15625 7.738281 0.015625 7.34375 -0.265625 C 6.945312 -0.546875 6.582031 -0.972656 6.25 -1.546875 L 4.6875 -4.21875 L 3.40625 -3.234375 L 3.40625 -0.875 L 4.71875 -0.875 L 4.71875 0 L 0.171875 0 L 0.171875 -0.875 L 1.75 -0.875 L 1.75 -10.703125 L 0.171875 -10.703125 L 0.171875 -11.65625 L 3.40625 -11.65625 L 3.40625 -4.421875 L 6.640625 -7.4375 L 5.1875 -7.4375 L 5.1875 -8.3125 L 9.828125 -8.3125 L 9.828125 -7.4375 L 8.359375 -7.4375 L 5.671875 -4.875 C 5.828125 -4.664062 6.03125 -4.351562 6.28125 -3.9375 C 6.5625 -3.488281 6.796875 -3.125 6.984375 -2.84375 C 7.171875 -2.570312 7.378906 -2.289062 7.609375 -2 C 7.847656 -1.695312 8.09375 -1.460938 8.34375 -1.296875 C 8.601562 -1.140625 8.859375 -1.0625 9.109375 -1.0625 C 9.410156 -1.0625 9.675781 -1.113281 9.90625 -1.21875 L 10.140625 -0.171875 C 9.898438 -0.046875 9.679688 0.0351562 9.484375 0.078125 C 9.285156 0.128906 9.039062 0.15625 8.75 0.15625 Z M 8.75 0.15625 "/></g></g></g><g fill="rgb(0%, 0%, 0%)" fill-opacity="1"><g transform="translate(52.261289, 22.872577)"><g><path d="M 0.375 -0.875 L 1.890625 -0.875 L 1.890625 -7.4375 L 0.375 -7.4375 L 0.375 -8.3125 L 3.3125 -8.4375 L 3.515625 -6.75 C 3.671875 -7.125 3.894531 -7.441406 4.1875 -7.703125 C 4.476562 -7.972656 4.804688 -8.175781 5.171875 -8.3125 C 5.535156 -8.457031 5.898438 -8.53125 6.265625 -8.53125 C 6.441406 -8.53125 6.597656 -8.519531 6.734375 -8.5 C 6.867188 -8.488281 7.019531 -8.457031 7.1875 -8.40625 C 7.375 -8.351562 7.535156 -8.28125 7.671875 -8.1875 C 7.816406 -8.101562 7.960938 -7.988281 8.109375 -7.84375 C 8.265625 -7.675781 8.390625 -7.488281 8.484375 -7.28125 C 8.585938 -7.082031 8.675781 -6.832031 8.75 -6.53125 C 8.800781 -6.238281 8.828125 -5.898438 8.828125 -5.515625 L 8.828125 -0.875 L 10.421875 -0.875 L 10.421875 0 L 5.75 0 L 5.75 -0.875 L 7.171875 -0.875 L 7.171875 -5.5 C 7.171875 -6.15625 7.039062 -6.644531 6.78125 -6.96875 C 6.519531 -7.300781 6.15625 -7.46875 5.6875 -7.46875 C 5.40625 -7.46875 5.140625 -7.410156 4.890625 -7.296875 C 4.640625 -7.191406 4.4375 -7.046875 4.28125 -6.859375 C 4.113281 -6.671875 3.972656 -6.445312 3.859375 -6.1875 C 3.753906 -5.9375 3.675781 -5.671875 3.625 -5.390625 C 3.570312 -5.140625 3.546875 -4.851562 3.546875 -4.53125 L 3.546875 -0.875 L 4.96875 -0.875 L 4.96875 0 L 0.375 0 Z M 0.375 -0.875 "/></g></g></g><g fill="rgb(0%, 0%, 0%)" fill-opacity="1"><g transform="translate(62.782778, 22.872577)"><g><path d="M 2.609375 -9.765625 C 2.398438 -9.765625 2.207031 -9.816406 2.03125 -9.921875 C 1.851562 -10.023438 1.710938 -10.164062 1.609375 -10.34375 C 1.503906 -10.519531 1.453125 -10.707031 1.453125 -10.90625 C 1.453125 -11.125 1.503906 -11.320312 1.609375 -11.5 C 1.710938 -11.675781 1.851562 -11.816406 2.03125 -11.921875 C 2.207031 -12.023438 2.398438 -12.078125 2.609375 -12.078125 C 2.804688 -12.078125 2.992188 -12.019531 3.171875 -11.90625 C 3.347656 -11.800781 3.488281 -11.660156 3.59375 -11.484375 C 3.695312 -11.304688 3.75 -11.113281 3.75 -10.90625 C 3.75 -10.707031 3.695312 -10.519531 3.59375 -10.34375 C 3.488281 -10.164062 3.347656 -10.023438 3.171875 -9.921875 C 2.992188 -9.816406 2.804688 -9.765625 2.609375 -9.765625 Z M 0.421875 0 L 0.421875 -0.875 L 1.921875 -0.875 L 1.921875 -7.4375 L 0.40625 -7.4375 L 0.40625 -8.3125 L 3.578125 -8.3125 L 3.578125 -0.875 L 5.109375 -0.875 L 5.109375 0 Z M 0.421875 0 "/></g></g></g><g fill="rgb(0%, 0%, 0%)" fill-opacity="1"><g transform="translate(67.931266, 22.872577)"><g><path d="M 3.984375 0.203125 C 3.148438 0.203125 2.398438 0.046875 1.734375 -0.265625 C 1.390625 -0.421875 1.113281 -0.640625 0.90625 -0.921875 C 0.707031 -1.203125 0.609375 -1.519531 0.609375 -1.875 C 0.609375 -2.09375 0.65625 -2.289062 0.75 -2.46875 C 0.851562 -2.644531 0.984375 -2.78125 1.140625 -2.875 C 1.304688 -2.976562 1.484375 -3.03125 1.671875 -3.03125 C 1.972656 -3.03125 2.222656 -2.945312 2.421875 -2.78125 C 2.617188 -2.625 2.71875 -2.394531 2.71875 -2.09375 C 2.71875 -1.925781 2.679688 -1.769531 2.609375 -1.625 C 2.546875 -1.488281 2.453125 -1.378906 2.328125 -1.296875 C 2.210938 -1.222656 2.085938 -1.1875 1.953125 -1.1875 C 2.160156 -1.039062 2.429688 -0.921875 2.765625 -0.828125 C 3.109375 -0.734375 3.445312 -0.6875 3.78125 -0.6875 C 4.207031 -0.6875 4.570312 -0.722656 4.875 -0.796875 C 5.175781 -0.878906 5.429688 -1.023438 5.640625 -1.234375 C 5.867188 -1.441406 5.984375 -1.710938 5.984375 -2.046875 C 5.984375 -2.285156 5.90625 -2.503906 5.75 -2.703125 C 5.601562 -2.898438 5.40625 -3.054688 5.15625 -3.171875 C 4.59375 -3.421875 3.984375 -3.628906 3.328125 -3.796875 C 2.992188 -3.890625 2.664062 -4.003906 2.34375 -4.140625 C 2.03125 -4.273438 1.753906 -4.421875 1.515625 -4.578125 C 1.253906 -4.753906 1.050781 -4.976562 0.90625 -5.25 C 0.757812 -5.519531 0.6875 -5.828125 0.6875 -6.171875 C 0.6875 -6.515625 0.757812 -6.828125 0.90625 -7.109375 C 1.050781 -7.390625 1.242188 -7.617188 1.484375 -7.796875 C 1.710938 -7.960938 1.972656 -8.101562 2.265625 -8.21875 C 2.566406 -8.34375 2.859375 -8.425781 3.140625 -8.46875 C 3.429688 -8.507812 3.695312 -8.53125 3.9375 -8.53125 C 4.300781 -8.53125 4.671875 -8.488281 5.046875 -8.40625 C 5.429688 -8.320312 5.789062 -8.207031 6.125 -8.0625 C 6.457031 -7.90625 6.722656 -7.695312 6.921875 -7.4375 C 7.128906 -7.1875 7.234375 -6.921875 7.234375 -6.640625 C 7.234375 -6.410156 7.1875 -6.207031 7.09375 -6.03125 C 7.007812 -5.851562 6.890625 -5.710938 6.734375 -5.609375 C 6.578125 -5.515625 6.410156 -5.46875 6.234375 -5.46875 C 5.929688 -5.46875 5.675781 -5.554688 5.46875 -5.734375 C 5.269531 -5.921875 5.171875 -6.164062 5.171875 -6.46875 C 5.171875 -6.601562 5.203125 -6.734375 5.265625 -6.859375 C 5.335938 -6.984375 5.410156 -7.078125 5.484375 -7.140625 L 5.765625 -7.328125 C 5.253906 -7.578125 4.675781 -7.703125 4.03125 -7.703125 C 3.675781 -7.703125 3.351562 -7.648438 3.0625 -7.546875 C 2.769531 -7.441406 2.539062 -7.285156 2.375 -7.078125 C 2.207031 -6.878906 2.125 -6.644531 2.125 -6.375 C 2.125 -6.175781 2.195312 -5.992188 2.34375 -5.828125 C 2.5 -5.671875 2.707031 -5.546875 2.96875 -5.453125 C 3.5625 -5.222656 4.171875 -5.023438 4.796875 -4.859375 C 5.117188 -4.765625 5.441406 -4.644531 5.765625 -4.5 C 6.085938 -4.351562 6.375 -4.1875 6.625 -4 C 6.882812 -3.8125 7.085938 -3.566406 7.234375 -3.265625 C 7.378906 -2.972656 7.453125 -2.644531 7.453125 -2.28125 C 7.453125 -1.914062 7.382812 -1.585938 7.25 -1.296875 C 7.113281 -1.003906 6.9375 -0.757812 6.71875 -0.5625 C 6.5 -0.382812 6.238281 -0.234375 5.9375 -0.109375 C 5.632812 0.00390625 5.316406 0.0859375 4.984375 0.140625 C 4.671875 0.179688 4.335938 0.203125 3.984375 0.203125 Z M 3.984375 0.203125 "/></g></g></g><g fill="rgb(0%, 0%, 0%)" fill-opacity="1"><g transform="translate(75.983027, 22.872577)"><g><path d="M 2.78125 3.609375 C 2.3125 3.609375 1.894531 3.535156 1.53125 3.390625 C 1.164062 3.242188 0.878906 3.039062 0.671875 2.78125 C 0.472656 2.519531 0.375 2.222656 0.375 1.890625 C 0.375 1.523438 0.492188 1.226562 0.734375 1 C 0.972656 0.769531 1.300781 0.65625 1.71875 0.65625 C 2.019531 0.65625 2.253906 0.757812 2.421875 0.96875 C 2.585938 1.175781 2.671875 1.441406 2.671875 1.765625 C 2.671875 1.953125 2.613281 2.117188 2.5 2.265625 C 2.382812 2.421875 2.226562 2.546875 2.03125 2.640625 C 2.238281 2.742188 2.410156 2.796875 2.546875 2.796875 C 3.003906 2.796875 3.390625 2.585938 3.703125 2.171875 C 4.015625 1.765625 4.25 1.097656 4.40625 0.171875 L 1.328125 -7.4375 L -0.203125 -7.4375 L -0.203125 -8.3125 L 4.5625 -8.3125 L 4.5625 -7.4375 L 3.15625 -7.4375 L 5.40625 -1.359375 L 7.328125 -7.4375 L 6.046875 -7.4375 L 6.046875 -8.3125 L 10.015625 -8.3125 L 10.015625 -7.4375 L 8.6875 -7.4375 L 6.03125 0.03125 C 5.71875 0.914062 5.398438 1.617188 5.078125 2.140625 C 4.765625 2.660156 4.421875 3.035156 4.046875 3.265625 C 3.679688 3.492188 3.257812 3.609375 2.78125 3.609375 Z M 2.78125 3.609375 "/></g></g></g><g fill="rgb(0%, 0%, 0%)" fill-opacity="1"><g transform="translate(85.892887, 22.872577)"><g><path d="M 4.609375 0.203125 C 3.992188 0.203125 3.425781 0.0859375 2.90625 -0.140625 C 2.382812 -0.378906 1.953125 -0.703125 1.609375 -1.109375 C 1.273438 -1.515625 1.019531 -1.96875 0.84375 -2.46875 C 0.664062 -2.976562 0.578125 -3.503906 0.578125 -4.046875 C 0.578125 -4.515625 0.628906 -4.96875 0.734375 -5.40625 C 0.847656 -5.851562 1.015625 -6.257812 1.234375 -6.625 C 1.703125 -7.4375 2.335938 -7.992188 3.140625 -8.296875 C 3.554688 -8.453125 4.015625 -8.53125 4.515625 -8.53125 C 5.046875 -8.53125 5.535156 -8.4375 5.984375 -8.25 C 6.441406 -8.0625 6.84375 -7.796875 7.1875 -7.453125 C 7.53125 -7.085938 7.800781 -6.628906 8 -6.078125 C 8.195312 -5.535156 8.300781 -4.929688 8.3125 -4.265625 L 2.34375 -4.265625 L 2.34375 -4.203125 C 2.34375 -3.304688 2.535156 -2.550781 2.921875 -1.9375 C 3.109375 -1.625 3.363281 -1.378906 3.6875 -1.203125 C 4.007812 -1.035156 4.375 -0.953125 4.78125 -0.953125 C 5.132812 -0.953125 5.476562 -1.023438 5.8125 -1.171875 C 6.15625 -1.328125 6.453125 -1.550781 6.703125 -1.84375 C 6.953125 -2.132812 7.132812 -2.476562 7.25 -2.875 L 8.15625 -2.59375 C 8.019531 -2.019531 7.789062 -1.519531 7.46875 -1.09375 C 7.144531 -0.675781 6.738281 -0.351562 6.25 -0.125 C 5.757812 0.09375 5.210938 0.203125 4.609375 0.203125 Z M 6.609375 -5.109375 C 6.597656 -5.597656 6.5 -6.03125 6.3125 -6.40625 C 6.132812 -6.789062 5.890625 -7.085938 5.578125 -7.296875 C 5.273438 -7.503906 4.9375 -7.609375 4.5625 -7.609375 C 4.1875 -7.609375 3.84375 -7.503906 3.53125 -7.296875 C 3.21875 -7.085938 2.960938 -6.789062 2.765625 -6.40625 C 2.566406 -6.03125 2.445312 -5.597656 2.40625 -5.109375 Z M 6.609375 -5.109375 "/></g></g></g><g fill="rgb(0%, 0%, 0%)" fill-opacity="1"><g transform="translate(94.796277, 22.872577)"><g><path d="M 0.375 -0.875 L 1.890625 -0.875 L 1.890625 -7.4375 L 0.375 -7.4375 L 0.375 -8.3125 L 3.3125 -8.4375 L 3.515625 -6.75 C 3.671875 -7.125 3.894531 -7.441406 4.1875 -7.703125 C 4.476562 -7.972656 4.804688 -8.175781 5.171875 -8.3125 C 5.535156 -8.457031 5.898438 -8.53125 6.265625 -8.53125 C 6.441406 -8.53125 6.597656 -8.519531 6.734375 -8.5 C 6.867188 -8.488281 7.019531 -8.457031 7.1875 -8.40625 C 7.375 -8.351562 7.535156 -8.28125 7.671875 -8.1875 C 7.816406 -8.101562 7.960938 -7.988281 8.109375 -7.84375 C 8.265625 -7.675781 8.390625 -7.488281 8.484375 -7.28125 C 8.585938 -7.082031 8.675781 -6.832031 8.75 -6.53125 C 8.800781 -6.238281 8.828125 -5.898438 8.828125 -5.515625 L 8.828125 -0.875 L 10.421875 -0.875 L 10.421875 0 L 5.75 0 L 5.75 -0.875 L 7.171875 -0.875 L 7.171875 -5.5 C 7.171875 -6.15625 7.039062 -6.644531 6.78125 -6.96875 C 6.519531 -7.300781 6.15625 -7.46875 5.6875 -7.46875 C 5.40625 -7.46875 5.140625 -7.410156 4.890625 -7.296875 C 4.640625 -7.191406 4.4375 -7.046875 4.28125 -6.859375 C 4.113281 -6.671875 3.972656 -6.445312 3.859375 -6.1875 C 3.753906 -5.9375 3.675781 -5.671875 3.625 -5.390625 C 3.570312 -5.140625 3.546875 -4.851562 3.546875 -4.53125 L 3.546875 -0.875 L 4.96875 -0.875 L 4.96875 0 L 0.375 0 Z M 0.375 -0.875 "/></g></g></g><g clip-path="url(#id3)"><path fill="rgb(96.469116%, 98.81897%, 92.549133%)" d="M 11.660156 11.167969 C 8.519531 11.167969 5.832031 13.125 4.75 15.886719 C 4.714844 15.972656 4.710938 16.058594 4.746094 16.140625 C 4.78125 16.226562 4.84375 16.285156 4.929688 16.320312 C 5.015625 16.351562 5.097656 16.351562 5.183594 16.3125 C 5.265625 16.273438 5.320312 16.210938 5.351562 16.121094 C 6.335938 13.601562 8.785156 11.8125 11.660156 11.8125 C 15.40625 11.8125 18.433594 14.839844 18.433594 18.585938 C 18.433594 22.328125 15.40625 25.359375 11.660156 25.359375 C 8.785156 25.359375 6.335938 23.570312 5.351562 21.046875 C 5.320312 20.960938 5.265625 20.898438 5.183594 20.859375 C 5.097656 20.820312 5.015625 20.816406 4.929688 20.851562 C 4.84375 20.886719 4.78125 20.945312 4.746094 21.027344 C 4.710938 21.113281 4.714844 21.199219 4.75 21.28125 C 5.832031 24.046875 8.519531 26.003906 11.660156 26.003906 C 15.753906 26.003906 19.078125 22.679688 19.078125 18.585938 C 19.078125 14.492188 15.753906 11.167969 11.660156 11.167969 Z M 11.980469 15.679688 C 11.835938 15.679688 11.734375 15.746094 11.679688 15.878906 C 11.628906 16.015625 11.652344 16.132812 11.753906 16.234375 L 13.785156 18.261719 L 4.566406 18.261719 C 4.476562 18.261719 4.398438 18.292969 4.335938 18.355469 C 4.269531 18.417969 4.238281 18.496094 4.238281 18.585938 C 4.238281 18.675781 4.269531 18.753906 4.335938 18.816406 C 4.398438 18.878906 4.476562 18.910156 4.566406 18.90625 L 13.785156 18.90625 L 11.753906 20.9375 C 11.691406 21 11.65625 21.078125 11.65625 21.167969 C 11.65625 21.257812 11.6875 21.335938 11.75 21.398438 C 11.816406 21.460938 11.890625 21.492188 11.980469 21.492188 C 12.074219 21.492188 12.148438 21.457031 12.210938 21.394531 L 14.792969 18.8125 C 14.855469 18.75 14.886719 18.675781 14.886719 18.585938 C 14.886719 18.496094 14.855469 18.421875 14.792969 18.359375 L 12.210938 15.777344 C 12.148438 15.710938 12.070312 15.679688 11.980469 15.679688 Z M 11.980469 15.679688 " fill-opacity="1" fill-rule="nonzero"/></g></svg>